<svg width="22" height="22" viewBox="0 0 22 22" fill="none" xmlns="http://www.w3.org/2000/svg">
<g id="corporate_fare_FILL0_wght400_GRAD0_opsz24 (2) 1">
<path id="Vector" d="M3.66536 19.25C3.1612 19.25 2.7296 19.0705 2.37057 18.7115C2.01155 18.3524 1.83203 17.9208 1.83203 17.4167V4.58333C1.83203 4.07917 2.01155 3.64757 2.37057 3.28854C2.7296 2.92951 3.1612 2.75 3.66536 2.75H9.16536C9.66953 2.75 10.1011 2.92951 10.4602 3.28854C10.8192 3.64757 10.9987 4.07917 10.9987 4.58333V6.41667H18.332C18.8362 6.41667 19.2678 6.59618 19.6268 6.95521C19.9859 7.31424 20.1654 7.74583 20.1654 8.25V17.4167C20.1654 17.9208 19.9859 18.3524 19.6268 18.7115C19.2678 19.0705 18.8362 19.25 18.332 19.25H3.66536ZM3.66536 17.4167H9.16536V15.5833H3.66536V17.4167ZM3.66536 13.75H9.16536V11.9167H3.66536V13.75ZM3.66536 10.0833H9.16536V8.25H3.66536V10.0833ZM3.66536 6.41667H9.16536V4.58333H3.66536V6.41667ZM10.9987 17.4167H18.332V8.25H10.9987V17.4167ZM13.7487 11.9167C13.489 11.9167 13.2713 11.8288 13.0956 11.6531C12.9199 11.4774 12.832 11.2597 12.832 11C12.832 10.7403 12.9199 10.5226 13.0956 10.3469C13.2713 10.1712 13.489 10.0833 13.7487 10.0833H15.582C15.8418 10.0833 16.0595 10.1712 16.2352 10.3469C16.4109 10.5226 16.4987 10.7403 16.4987 11C16.4987 11.2597 16.4109 11.4774 16.2352 11.6531C16.0595 11.8288 15.8418 11.9167 15.582 11.9167H13.7487ZM13.7487 15.5833C13.489 15.5833 13.2713 15.4955 13.0956 15.3198C12.9199 15.1441 12.832 14.9264 12.832 14.6667C12.832 14.4069 12.9199 14.1892 13.0956 14.0135C13.2713 13.8378 13.489 13.75 13.7487 13.75H15.582C15.8418 13.75 16.0595 13.8378 16.2352 14.0135C16.4109 14.1892 16.4987 14.4069 16.4987 14.6667C16.4987 14.9264 16.4109 15.1441 16.2352 15.3198C16.0595 15.4955 15.8418 15.5833 15.582 15.5833H13.7487Z" fill="#7F47DD"/>
</g>
</svg>
