<svg width="22" height="22" viewBox="0 0 22 22" fill="none" xmlns="http://www.w3.org/2000/svg">
<g id="calendar_month_black_24dp (3) 3" opacity="0.7" clip-path="url(#clip0_5751_26791)">
<g id="Group">
<path id="Vector" d="M17.4167 3.66683H16.5V1.8335H14.6667V3.66683H7.33333V1.8335H5.5V3.66683H4.58333C3.56583 3.66683 2.75917 4.49183 2.75917 5.50016L2.75 18.3335C2.75 19.3418 3.56583 20.1668 4.58333 20.1668H17.4167C18.425 20.1668 19.25 19.3418 19.25 18.3335V5.50016C19.25 4.49183 18.425 3.66683 17.4167 3.66683ZM17.4167 18.3335H4.58333V9.16683H17.4167V18.3335ZM17.4167 7.3335H4.58333V5.50016H17.4167V7.3335ZM8.25 12.8335H6.41667V11.0002H8.25V12.8335ZM11.9167 12.8335H10.0833V11.0002H11.9167V12.8335ZM15.5833 12.8335H13.75V11.0002H15.5833V12.8335ZM8.25 16.5002H6.41667V14.6668H8.25V16.5002ZM11.9167 16.5002H10.0833V14.6668H11.9167V16.5002ZM15.5833 16.5002H13.75V14.6668H15.5833V16.5002Z" fill="#717B9E"/>
</g>
</g>
<defs>
<clipPath id="clip0_5751_26791">
<rect width="22" height="22" fill="white"/>
</clipPath>
</defs>
</svg>
