<svg width="22" height="22" viewBox="0 0 22 22" fill="none" xmlns="http://www.w3.org/2000/svg">
<g id="corporate_fare_FILL0_wght400_GRAD0_opsz24 (2) 1">
<path id="Vector" d="M3.66634 19.25C3.16217 19.25 2.73058 19.0705 2.37155 18.7115C2.01252 18.3524 1.83301 17.9208 1.83301 17.4167V4.58333C1.83301 4.07917 2.01252 3.64757 2.37155 3.28854C2.73058 2.92951 3.16217 2.75 3.66634 2.75H9.16634C9.67051 2.75 10.1021 2.92951 10.4611 3.28854C10.8202 3.64757 10.9997 4.07917 10.9997 4.58333V6.41667H18.333C18.8372 6.41667 19.2688 6.59618 19.6278 6.95521C19.9868 7.31424 20.1663 7.74583 20.1663 8.25V17.4167C20.1663 17.9208 19.9868 18.3524 19.6278 18.7115C19.2688 19.0705 18.8372 19.25 18.333 19.25H3.66634ZM3.66634 17.4167H9.16634V15.5833H3.66634V17.4167ZM3.66634 13.75H9.16634V11.9167H3.66634V13.75ZM3.66634 10.0833H9.16634V8.25H3.66634V10.0833ZM3.66634 6.41667H9.16634V4.58333H3.66634V6.41667ZM10.9997 17.4167H18.333V8.25H10.9997V17.4167ZM13.7497 11.9167C13.49 11.9167 13.2722 11.8288 13.0965 11.6531C12.9209 11.4774 12.833 11.2597 12.833 11C12.833 10.7403 12.9209 10.5226 13.0965 10.3469C13.2722 10.1712 13.49 10.0833 13.7497 10.0833H15.583C15.8427 10.0833 16.0604 10.1712 16.2361 10.3469C16.4118 10.5226 16.4997 10.7403 16.4997 11C16.4997 11.2597 16.4118 11.4774 16.2361 11.6531C16.0604 11.8288 15.8427 11.9167 15.583 11.9167H13.7497ZM13.7497 15.5833C13.49 15.5833 13.2722 15.4955 13.0965 15.3198C12.9209 15.1441 12.833 14.9264 12.833 14.6667C12.833 14.4069 12.9209 14.1892 13.0965 14.0135C13.2722 13.8378 13.49 13.75 13.7497 13.75H15.583C15.8427 13.75 16.0604 13.8378 16.2361 14.0135C16.4118 14.1892 16.4997 14.4069 16.4997 14.6667C16.4997 14.9264 16.4118 15.1441 16.2361 15.3198C16.0604 15.4955 15.8427 15.5833 15.583 15.5833H13.7497Z" fill="#7F47DD"/>
</g>
</svg>
