<svg width="18" height="18" viewBox="0 0 18 18" fill="none" xmlns="http://www.w3.org/2000/svg">
<g id="drag_indicator_FILL0_wght600_GRAD0_opsz24 1" opacity="0.7">
<path id="Vector" d="M6.59445 15.3285C6.1345 15.3285 5.74075 15.1647 5.4132 14.8372C5.08565 14.5096 4.92188 14.1159 4.92188 13.6559C4.92188 13.196 5.08565 12.805 5.4132 12.483C5.74075 12.1609 6.1345 11.9999 6.59445 11.9999C7.05441 11.9999 7.4454 12.1609 7.76741 12.483C8.08943 12.805 8.25043 13.196 8.25043 13.6559C8.25043 14.1159 8.08943 14.5096 7.76741 14.8372C7.4454 15.1647 7.05441 15.3285 6.59445 15.3285ZM11.4139 15.3285C10.956 15.3285 10.5643 15.1647 10.2388 14.8372C9.91321 14.5096 9.75043 14.1159 9.75043 13.6559C9.75043 13.196 9.91288 12.805 10.2378 12.483C10.5626 12.1609 10.9532 11.9999 11.4094 11.9999C11.8685 11.9999 12.2616 12.1609 12.5885 12.483C12.9155 12.805 13.079 13.196 13.079 13.6559C13.079 14.1159 12.916 14.5096 12.5899 14.8372C12.2638 15.1647 11.8718 15.3285 11.4139 15.3285ZM6.59445 10.6589C6.1345 10.6589 5.74075 10.4965 5.4132 10.1716C5.08565 9.84671 4.92188 9.45616 4.92188 8.99994C4.92188 8.53798 5.08565 8.14599 5.4132 7.82398C5.74075 7.50197 6.1345 7.34096 6.59445 7.34096C7.05441 7.34096 7.4454 7.50197 7.76741 7.82398C8.08943 8.14599 8.25043 8.53621 8.25043 8.99464C8.25043 9.45306 8.08943 9.84505 7.76741 10.1706C7.4454 10.4961 7.05441 10.6589 6.59445 10.6589ZM11.4139 10.6589C10.956 10.6589 10.5643 10.4965 10.2388 10.1716C9.91321 9.84671 9.75043 9.45616 9.75043 8.99994C9.75043 8.53798 9.91288 8.14599 10.2378 7.82398C10.5626 7.50197 10.9532 7.34096 11.4094 7.34096C11.8685 7.34096 12.2616 7.50197 12.5885 7.82398C12.9155 8.14599 13.079 8.53621 13.079 8.99464C13.079 9.45306 12.916 9.84505 12.5899 10.1706C12.2638 10.4961 11.8718 10.6589 11.4139 10.6589ZM6.59445 5.99994C6.1345 5.99994 5.74075 5.8375 5.4132 5.51261C5.08565 5.18774 4.92188 4.79719 4.92188 4.34096C4.92188 3.88184 5.08565 3.48879 5.4132 3.16183C5.74075 2.83487 6.1345 2.67139 6.59445 2.67139C7.05441 2.67139 7.4454 2.83442 7.76741 3.1605C8.08943 3.48659 8.25043 3.87857 8.25043 4.33646C8.25043 4.79436 8.08943 5.18608 7.76741 5.51162C7.4454 5.83717 7.05441 5.99994 6.59445 5.99994ZM11.4139 5.99994C10.956 5.99994 10.5643 5.8375 10.2388 5.51261C9.91321 5.18774 9.75043 4.79719 9.75043 4.34096C9.75043 3.88184 9.91288 3.48879 10.2378 3.16183C10.5626 2.83487 10.9532 2.67139 11.4094 2.67139C11.8685 2.67139 12.2616 2.83442 12.5885 3.1605C12.9155 3.48659 13.079 3.87857 13.079 4.33646C13.079 4.79436 12.916 5.18608 12.5899 5.51162C12.2638 5.83717 11.8718 5.99994 11.4139 5.99994Z" fill="#717B9E"/>
</g>
</svg>
