<svg width="20" height="20" viewBox="0 0 20 20" fill="none" xmlns="http://www.w3.org/2000/svg">
<g id="expand_more_FILL0_wght400_GRAD0_opsz24 1">
<path id="Vector" d="M10.0003 7.54167C9.88921 7.54167 9.78505 7.55903 9.68783 7.59375C9.5906 7.62847 9.50033 7.6875 9.41699 7.77083L5.58366 11.6042C5.43088 11.7569 5.35449 11.9514 5.35449 12.1875C5.35449 12.4236 5.43088 12.6181 5.58366 12.7708C5.73644 12.9236 5.93088 13 6.16699 13C6.4031 13 6.59755 12.9236 6.75033 12.7708L10.0003 9.52083L13.2503 12.7708C13.4031 12.9236 13.5975 13 13.8337 13C14.0698 13 14.2642 12.9236 14.417 12.7708C14.5698 12.6181 14.6462 12.4236 14.6462 12.1875C14.6462 11.9514 14.5698 11.7569 14.417 11.6042L10.5837 7.77083C10.5003 7.6875 10.41 7.62847 10.3128 7.59375C10.2156 7.55903 10.1114 7.54167 10.0003 7.54167Z" fill="#7F47DD"/>
</g>
</svg>
