<svg width="30" height="30" viewBox="0 0 30 30" fill="none" xmlns="http://www.w3.org/2000/svg">
<g id="description_FILL1_wght400_GRAD0_opsz24 1" opacity="0.3">
<path id="Vector" d="M11.3585 22.2835H18.6418C18.9858 22.2835 19.2741 22.1672 19.5067 21.9346C19.7394 21.7019 19.8557 21.4136 19.8557 21.0697C19.8557 20.7257 19.7394 20.4374 19.5067 20.2048C19.2741 19.9721 18.9858 19.8558 18.6418 19.8558H11.3585C11.0146 19.8558 10.7263 19.9721 10.4936 20.2048C10.2609 20.4374 10.1446 20.7257 10.1446 21.0697C10.1446 21.4136 10.2609 21.7019 10.4936 21.9346C10.7263 22.1672 11.0146 22.2835 11.3585 22.2835ZM11.3585 17.428H18.6418C18.9858 17.428 19.2741 17.3117 19.5067 17.079C19.7394 16.8463 19.8557 16.558 19.8557 16.2141C19.8557 15.8702 19.7394 15.5819 19.5067 15.3492C19.2741 15.1165 18.9858 15.0002 18.6418 15.0002H11.3585C11.0146 15.0002 10.7263 15.1165 10.4936 15.3492C10.2609 15.5819 10.1446 15.8702 10.1446 16.2141C10.1446 16.558 10.2609 16.8463 10.4936 17.079C10.7263 17.3117 11.0146 17.428 11.3585 17.428ZM7.71684 27.1391C7.0492 27.1391 6.47766 26.9014 6.00222 26.4259C5.52678 25.9505 5.28906 25.379 5.28906 24.7113V5.28911C5.28906 4.62147 5.52678 4.04993 6.00222 3.57449C6.47766 3.09905 7.0492 2.86133 7.71684 2.86133H16.4265C16.7502 2.86133 17.0587 2.92202 17.3521 3.04341C17.6454 3.1648 17.9034 3.33677 18.1259 3.55931L24.0133 9.44667C24.2358 9.66922 24.4078 9.92717 24.5292 10.2205C24.6506 10.5139 24.7113 10.8224 24.7113 11.1461V24.7113C24.7113 25.379 24.4736 25.9505 23.9981 26.4259C23.5227 26.9014 22.9511 27.1391 22.2835 27.1391H7.71684ZM16.2141 10.1447C16.2141 10.4886 16.3304 10.7769 16.5631 11.0096C16.7957 11.2422 17.084 11.3585 17.4279 11.3585H22.2835L16.2141 5.28911V10.1447Z" fill="#717B9E"/>
</g>
</svg>
