<svg width="26" height="23" viewBox="0 0 26 23" fill="none" xmlns="http://www.w3.org/2000/svg">
<path id="Vector" d="M12.2178 22.6536C12.4761 22.7441 12.7342 22.7894 12.9921 22.7894C13.2564 22.7894 13.5166 22.7447 13.7729 22.6554C14.0291 22.5661 14.2557 22.4216 14.4525 22.2221L16.1162 20.6834C18.6896 18.2976 20.9291 16.0086 22.8349 13.8166C24.7408 11.6245 25.6937 9.3211 25.6937 6.90624C25.6937 4.97268 25.0452 3.35795 23.7484 2.06206C22.4516 0.766139 20.8452 0.118179 18.9294 0.118179C17.851 0.118179 16.8248 0.36592 15.8506 0.861399C14.8764 1.35688 13.9235 2.17798 12.9919 3.32471C12.1644 2.17798 11.2324 1.35688 10.1957 0.861399C9.159 0.36592 8.1119 0.118179 7.05438 0.118179C5.14463 0.118179 3.54355 0.766139 2.25116 2.06206C0.958719 3.35795 0.3125 4.97268 0.3125 6.90624C0.3125 9.3211 1.26167 11.6245 3.16 13.8166C5.05833 16.0086 7.29668 18.2951 9.87503 20.6759L11.5303 22.2143C11.7304 22.4166 11.9596 22.563 12.2178 22.6536Z" fill="#FBAE17"/>
</svg>
