<svg width="22" height="22" viewBox="0 0 22 22" fill="none" xmlns="http://www.w3.org/2000/svg">
<g id="location_on_FILL0_wght500_GRAD0_opsz24 (1) 1">
<path id="Vector" d="M11.0001 11.0548C11.5226 11.0548 11.9679 10.8707 12.336 10.5025C12.7042 10.1344 12.8883 9.68908 12.8883 9.16664C12.8883 8.6442 12.7042 8.1989 12.336 7.83074C11.9679 7.46259 11.5226 7.27851 11.0001 7.27851C10.4777 7.27851 10.0324 7.46259 9.66423 7.83074C9.29608 8.1989 9.11201 8.6442 9.11201 9.16664C9.11201 9.68908 9.29608 10.1344 9.66423 10.5025C10.0324 10.8707 10.4777 11.0548 11.0001 11.0548ZM11.0001 17.5895C12.8385 15.9076 14.2037 14.3906 15.096 13.0383C15.9882 11.6861 16.4344 10.4493 16.4344 9.32804C16.4344 7.68846 15.9098 6.34596 14.8607 5.30053C13.8115 4.25512 12.5246 3.73241 11 3.73241C9.47529 3.73241 8.18845 4.25512 7.13944 5.30053C6.09042 6.34596 5.56591 7.68846 5.56591 9.32804C5.56591 10.4493 6.01203 11.6852 6.90429 13.0356C7.79654 14.386 9.16182 15.904 11.0001 17.5895ZM11.0001 20.353C8.48196 18.2234 6.59914 16.2564 5.35168 14.4521C4.10421 12.6479 3.48047 10.9398 3.48047 9.32802C3.48047 6.98624 4.23635 5.12062 5.74812 3.73115C7.25989 2.34168 9.01056 1.64696 11.0001 1.64697C12.9897 1.64697 14.7404 2.34171 16.2522 3.73117C17.7639 5.12064 18.5198 6.98627 18.5198 9.32804C18.5198 10.9399 17.8961 12.6479 16.6486 14.4522C15.4011 16.2564 13.5183 18.2234 11.0001 20.353Z" fill="#7F47DD"/>
</g>
</svg>
