<svg width="22" height="22" viewBox="0 0 22 22" fill="none" xmlns="http://www.w3.org/2000/svg">
<g id="location_on_FILL0_wght500_GRAD0_opsz24 (1) 1">
<path id="Vector" d="M11 11.0548C11.5225 11.0548 11.9678 10.8707 12.3359 10.5026C12.7041 10.1344 12.8881 9.68911 12.8881 9.16667C12.8881 8.64423 12.7041 8.19893 12.3359 7.83077C11.9678 7.46262 11.5225 7.27855 11 7.27855C10.4776 7.27855 10.0323 7.46262 9.66411 7.83077C9.29596 8.19893 9.11189 8.64423 9.11189 9.16667C9.11189 9.68911 9.29596 10.1344 9.66411 10.5026C10.0323 10.8707 10.4776 11.0548 11 11.0548ZM11 17.5895C12.8383 15.9076 14.2036 14.3906 15.0959 13.0384C15.9881 11.6861 16.4342 10.4493 16.4342 9.32807C16.4342 7.68849 15.9097 6.34599 14.8605 5.30056C13.8114 4.25515 12.5245 3.73244 10.9998 3.73244C9.47517 3.73244 8.18833 4.25515 7.13931 5.30056C6.0903 6.34599 5.56579 7.68849 5.56579 9.32807C5.56579 10.4493 6.01191 11.6852 6.90417 13.0356C7.79642 14.386 9.1617 15.904 11 17.5895ZM11 20.353C8.48184 18.2234 6.59902 16.2565 5.35156 14.4522C4.10408 12.6479 3.48035 10.9399 3.48035 9.32805C3.48035 6.98627 4.23623 5.12065 5.748 3.73118C7.25976 2.34171 9.01044 1.64699 11 1.647C12.9896 1.647 14.7403 2.34174 16.252 3.7312C17.7638 5.12067 18.5197 6.9863 18.5197 9.32807C18.5197 10.9399 17.8959 12.6479 16.6485 14.4522C15.401 16.2565 13.5182 18.2234 11 20.353Z" fill="#7F47DD"/>
</g>
</svg>
