<svg xmlns="http://www.w3.org/2000/svg" width="20" height="20" viewBox="0 0 20 20" fill="none">
  <g clip-path="url(#clip0_8611_24919)">
    <path d="M10.0003 1.66675C6.77533 1.66675 4.16699 4.27508 4.16699 7.50008C4.16699 11.8751 10.0003 18.3334 10.0003 18.3334C10.0003 18.3334 15.8337 11.8751 15.8337 7.50008C15.8337 4.27508 13.2253 1.66675 10.0003 1.66675ZM5.83366 7.50008C5.83366 5.20008 7.70033 3.33341 10.0003 3.33341C12.3003 3.33341 14.167 5.20008 14.167 7.50008C14.167 9.90008 11.767 13.4917 10.0003 15.7334C8.26699 13.5084 5.83366 9.87508 5.83366 7.50008Z" fill="#717B9E"/>
    <path d="M10.0003 9.58341C11.1509 9.58341 12.0837 8.65067 12.0837 7.50008C12.0837 6.34949 11.1509 5.41675 10.0003 5.41675C8.84973 5.41675 7.91699 6.34949 7.91699 7.50008C7.91699 8.65067 8.84973 9.58341 10.0003 9.58341Z" fill="#717B9E"/>
  </g>
  <defs>
    <clipPath id="clip0_8611_24919">
      <rect width="20" height="20" fill="white"/>
    </clipPath>
  </defs>
</svg>