<svg width="20" height="20" viewBox="0 0 20 20" fill="none" xmlns="http://www.w3.org/2000/svg">
<g id="person_FILL0_wght400_GRAD0_opsz48 (2) 1">
<path id="Vector" d="M9.99992 9.979C9.08325 9.979 8.33325 9.68734 7.74992 9.104C7.16658 8.52067 6.87492 7.77067 6.87492 6.854C6.87492 5.93734 7.16658 5.18734 7.74992 4.604C8.33325 4.02067 9.08325 3.729 9.99992 3.729C10.9166 3.729 11.6666 4.02067 12.2499 4.604C12.8333 5.18734 13.1249 5.93734 13.1249 6.854C13.1249 7.77067 12.8333 8.52067 12.2499 9.104C11.6666 9.68734 10.9166 9.979 9.99992 9.979ZM15.4166 16.6665H4.58325C4.2395 16.6665 3.94523 16.5441 3.70044 16.2993C3.45565 16.0545 3.33325 15.7603 3.33325 15.4165V14.7082C3.33325 14.1804 3.4652 13.729 3.72909 13.354C3.99297 12.979 4.33325 12.6943 4.74992 12.4998C5.68047 12.0832 6.57284 11.7707 7.427 11.5623C8.28117 11.354 9.13881 11.2498 9.99992 11.2498C10.861 11.2498 11.7152 11.3575 12.5624 11.5728C13.4096 11.788 14.298 12.0984 15.2274 12.5039C15.6622 12.7001 16.0107 12.9846 16.2731 13.3573C16.5354 13.7301 16.6666 14.1804 16.6666 14.7082V15.4165C16.6666 15.7603 16.5442 16.0545 16.2994 16.2993C16.0546 16.5441 15.7603 16.6665 15.4166 16.6665ZM4.58325 15.4165H15.4166V14.7082C15.4166 14.4859 15.3506 14.2741 15.2187 14.0728C15.0867 13.8714 14.9235 13.7221 14.7291 13.6248C13.8402 13.1943 13.0277 12.8991 12.2916 12.7394C11.5555 12.5797 10.7916 12.4998 9.99992 12.4998C9.20825 12.4998 8.43742 12.5797 7.68742 12.7394C6.93742 12.8991 6.12492 13.1943 5.24992 13.6248C5.05547 13.7221 4.89575 13.8714 4.77075 14.0728C4.64575 14.2741 4.58325 14.4859 4.58325 14.7082V15.4165ZM9.99992 8.729C10.5416 8.729 10.9895 8.55192 11.3437 8.19775C11.6978 7.84359 11.8749 7.39567 11.8749 6.854C11.8749 6.31234 11.6978 5.86442 11.3437 5.51025C10.9895 5.15609 10.5416 4.979 9.99992 4.979C9.45825 4.979 9.01033 5.15609 8.65617 5.51025C8.302 5.86442 8.12492 6.31234 8.12492 6.854C8.12492 7.39567 8.302 7.84359 8.65617 8.19775C9.01033 8.55192 9.45825 8.729 9.99992 8.729Z" fill="white"/>
</g>
</svg>
