<svg
  width="40"
  height="40"
  viewBox="0 0 54 54"
  fill="black"
  xmlns="http://www.w3.org/2000/svg"
>
  <g id="photo_camera_black_24dp (2) 1" clip-path="url(#clip0_2028_18670)">
    <path
      id="Vector"
      d="M27 33.75C30.7279 33.75 33.75 30.7279 33.75 27C33.75 23.2721 30.7279 20.25 27 20.25C23.2721 20.25 20.25 23.2721 20.25 27C20.25 30.7279 23.2721 33.75 27 33.75Z"
      fill="black"
    />
    <path
      id="Vector_2"
      d="M45 9H37.8675L35.0775 5.9625C34.245 5.04 33.03 4.5 31.77 4.5H22.23C20.97 4.5 19.755 5.04 18.9 5.9625L16.1325 9H9C6.525 9 4.5 11.025 4.5 13.5V40.5C4.5 42.975 6.525 45 9 45H45C47.475 45 49.5 42.975 49.5 40.5V13.5C49.5 11.025 47.475 9 45 9ZM27 38.25C20.79 38.25 15.75 33.21 15.75 27C15.75 20.79 20.79 15.75 27 15.75C33.21 15.75 38.25 20.79 38.25 27C38.25 33.21 33.21 38.25 27 38.25Z"
      fill="black"
    />
  </g>
  <defs>
    <clipPath id="clip0_2028_18670">
      <rect width="54" height="54" fill="black" />
    </clipPath>
  </defs>
</svg>
