<svg width="20" height="20" viewBox="0 0 20 20" fill="none" xmlns="http://www.w3.org/2000/svg">
<g id="article_FILL0_wght400_GRAD0_opsz24 (3) 1">
<path id="Vector" d="M6.66667 14.1667H10.8333C11.0694 14.1667 11.2674 14.0868 11.4271 13.9271C11.5868 13.7674 11.6667 13.5694 11.6667 13.3333C11.6667 13.0972 11.5868 12.8993 11.4271 12.7396C11.2674 12.5799 11.0694 12.5 10.8333 12.5H6.66667C6.43056 12.5 6.23264 12.5799 6.07292 12.7396C5.91319 12.8993 5.83333 13.0972 5.83333 13.3333C5.83333 13.5694 5.91319 13.7674 6.07292 13.9271C6.23264 14.0868 6.43056 14.1667 6.66667 14.1667ZM6.66667 10.8333H13.3333C13.5694 10.8333 13.7674 10.7535 13.9271 10.5938C14.0868 10.434 14.1667 10.2361 14.1667 10C14.1667 9.76389 14.0868 9.56597 13.9271 9.40625C13.7674 9.24653 13.5694 9.16667 13.3333 9.16667H6.66667C6.43056 9.16667 6.23264 9.24653 6.07292 9.40625C5.91319 9.56597 5.83333 9.76389 5.83333 10C5.83333 10.2361 5.91319 10.434 6.07292 10.5938C6.23264 10.7535 6.43056 10.8333 6.66667 10.8333ZM6.66667 7.5H13.3333C13.5694 7.5 13.7674 7.42014 13.9271 7.26042C14.0868 7.10069 14.1667 6.90278 14.1667 6.66667C14.1667 6.43056 14.0868 6.23264 13.9271 6.07292C13.7674 5.91319 13.5694 5.83333 13.3333 5.83333H6.66667C6.43056 5.83333 6.23264 5.91319 6.07292 6.07292C5.91319 6.23264 5.83333 6.43056 5.83333 6.66667C5.83333 6.90278 5.91319 7.10069 6.07292 7.26042C6.23264 7.42014 6.43056 7.5 6.66667 7.5ZM4.16667 17.5C3.70833 17.5 3.31597 17.3368 2.98958 17.0104C2.66319 16.684 2.5 16.2917 2.5 15.8333V4.16667C2.5 3.70833 2.66319 3.31597 2.98958 2.98958C3.31597 2.66319 3.70833 2.5 4.16667 2.5H15.8333C16.2917 2.5 16.684 2.66319 17.0104 2.98958C17.3368 3.31597 17.5 3.70833 17.5 4.16667V15.8333C17.5 16.2917 17.3368 16.684 17.0104 17.0104C16.684 17.3368 16.2917 17.5 15.8333 17.5H4.16667ZM4.16667 15.8333H15.8333V4.16667H4.16667V15.8333Z" fill="#717B9E"/>
</g>
</svg>
