<svg width="20" height="20" viewBox="0 0 20 20" fill="none" xmlns="http://www.w3.org/2000/svg">
<g id="arrow_circle_down_FILL1_wght500_GRAD0_opsz24 1">
<path id="Vector" d="M10 13.5078L13.5725 9.94025L12.2414 8.61417L10.948 9.90765V6.49234H9.05213V9.90765L7.75865 8.61417L6.42757 9.94025L10 13.5078ZM10 18.5028C8.8207 18.5028 7.71413 18.2797 6.68036 17.8336C5.64658 17.3876 4.74734 16.7822 3.98263 16.0175C3.21792 15.2528 2.61252 14.3535 2.16644 13.3197C1.72036 12.286 1.49731 11.1794 1.49731 10C1.49731 8.8207 1.72036 7.71413 2.16644 6.68036C2.61252 5.64658 3.21792 4.74734 3.98263 3.98263C4.74734 3.21792 5.64658 2.61252 6.68036 2.16644C7.71413 1.72036 8.8207 1.49731 10 1.49731C11.1794 1.49731 12.286 1.72036 13.3197 2.16644C14.3535 2.61252 15.2528 3.21792 16.0175 3.98263C16.7822 4.74734 17.3876 5.64658 17.8336 6.68036C18.2797 7.71413 18.5028 8.8207 18.5028 10C18.5028 11.1794 18.2797 12.286 17.8336 13.3197C17.3876 14.3535 16.7822 15.2528 16.0175 16.0175C15.2528 16.7822 14.3535 17.3876 13.3197 17.8336C12.286 18.2797 11.1794 18.5028 10 18.5028Z" fill="#EB6A5A"/>
</g>
</svg>
