<svg width="22" height="22" viewBox="0 0 22 22" fill="none" xmlns="http://www.w3.org/2000/svg">
<path d="M11.0007 12.2833L13.659 14.9416C13.827 15.1096 14.0409 15.1937 14.3007 15.1937C14.5604 15.1937 14.7743 15.1096 14.9423 14.9416C15.1104 14.7735 15.1944 14.5596 15.1944 14.2999C15.1944 14.0402 15.1104 13.8263 14.9423 13.6583L12.284 10.9999L14.9423 8.34159C15.1104 8.17353 15.1944 7.95964 15.1944 7.69992C15.1944 7.4402 15.1104 7.22631 14.9423 7.05825C14.7743 6.8902 14.5604 6.80617 14.3007 6.80617C14.0409 6.80617 13.827 6.8902 13.659 7.05825L11.0007 9.71659L8.34232 7.05825C8.17426 6.8902 7.96037 6.80617 7.70065 6.80617C7.44093 6.80617 7.22704 6.8902 7.05898 7.05825C6.89093 7.22631 6.8069 7.4402 6.8069 7.69992C6.8069 7.95964 6.89093 8.17353 7.05898 8.34159L9.71732 10.9999L7.05898 13.6583C6.89093 13.8263 6.8069 14.0402 6.8069 14.2999C6.8069 14.5596 6.89093 14.7735 7.05898 14.9416C7.22704 15.1096 7.44093 15.1937 7.70065 15.1937C7.96037 15.1937 8.17426 15.1096 8.34232 14.9416L11.0007 12.2833ZM11.0007 20.1666C9.7326 20.1666 8.54093 19.926 7.42565 19.4447C6.31037 18.9635 5.34023 18.3103 4.51523 17.4853C3.69023 16.6603 3.03711 15.6902 2.55586 14.5749C2.07461 13.4596 1.83398 12.268 1.83398 10.9999C1.83398 9.73186 2.07461 8.5402 2.55586 7.42492C3.03711 6.30964 3.69023 5.3395 4.51523 4.5145C5.34023 3.6895 6.31037 3.03638 7.42565 2.55513C8.54093 2.07388 9.7326 1.83325 11.0007 1.83325C12.2687 1.83325 13.4604 2.07388 14.5757 2.55513C15.6909 3.03638 16.6611 3.6895 17.4861 4.5145C18.3111 5.3395 18.9642 6.30964 19.4454 7.42492C19.9267 8.5402 20.1673 9.73186 20.1673 10.9999C20.1673 12.268 19.9267 13.4596 19.4454 14.5749C18.9642 15.6902 18.3111 16.6603 17.4861 17.4853C16.6611 18.3103 15.6909 18.9635 14.5757 19.4447C13.4604 19.926 12.2687 20.1666 11.0007 20.1666Z" fill="#E74C3C"/>
</svg>
