<svg xmlns="http://www.w3.org/2000/svg" width="22" height="22" viewBox="0 0 22 22" fill="none">
  <path d="M9.71732 12.6499L7.74648 10.6791C7.57843 10.511 7.36454 10.427 7.10482 10.427C6.8451 10.427 6.63121 10.511 6.46315 10.6791C6.2951 10.8471 6.21107 11.061 6.21107 11.3208C6.21107 11.5805 6.2951 11.7944 6.46315 11.9624L9.07565 14.5749C9.25898 14.7583 9.47287 14.8499 9.71732 14.8499C9.96176 14.8499 10.1757 14.7583 10.359 14.5749L15.5382 9.39575C15.7062 9.2277 15.7902 9.01381 15.7902 8.75409C15.7902 8.49436 15.7062 8.28047 15.5382 8.11242C15.3701 7.94436 15.1562 7.86034 14.8965 7.86034C14.6368 7.86034 14.4229 7.94436 14.2548 8.11242L9.71732 12.6499ZM11.0007 20.1666C9.7326 20.1666 8.54093 19.926 7.42565 19.4447C6.31037 18.9635 5.34023 18.3103 4.51523 17.4853C3.69023 16.6603 3.03711 15.6902 2.55586 14.5749C2.07461 13.4596 1.83398 12.268 1.83398 10.9999C1.83398 9.73186 2.07461 8.5402 2.55586 7.42492C3.03711 6.30964 3.69023 5.3395 4.51523 4.5145C5.34023 3.6895 6.31037 3.03638 7.42565 2.55513C8.54093 2.07388 9.7326 1.83325 11.0007 1.83325C12.2687 1.83325 13.4604 2.07388 14.5757 2.55513C15.6909 3.03638 16.6611 3.6895 17.4861 4.5145C18.3111 5.3395 18.9642 6.30964 19.4454 7.42492C19.9267 8.5402 20.1673 9.73186 20.1673 10.9999C20.1673 12.268 19.9267 13.4596 19.4454 14.5749C18.9642 15.6902 18.3111 16.6603 17.4861 17.4853C16.6611 18.3103 15.6909 18.9635 14.5757 19.4447C13.4604 19.926 12.2687 20.1666 11.0007 20.1666Z" fill="#5E9B2D"/>
</svg>