<svg width="20" height="20" viewBox="0 0 20 20" fill="none" xmlns="http://www.w3.org/2000/svg">
<g id="expand_more_FILL0_wght400_GRAD0_opsz24 1">
<path id="Vector" d="M10.0003 12.4583C9.88921 12.4583 9.78505 12.441 9.68783 12.4062C9.5906 12.3715 9.50033 12.3125 9.41699 12.2292L5.58366 8.39583C5.43088 8.24306 5.35449 8.04861 5.35449 7.8125C5.35449 7.57639 5.43088 7.38194 5.58366 7.22917C5.73644 7.07639 5.93088 7 6.16699 7C6.4031 7 6.59755 7.07639 6.75033 7.22917L10.0003 10.4792L13.2503 7.22917C13.4031 7.07639 13.5975 7 13.8337 7C14.0698 7 14.2642 7.07639 14.417 7.22917C14.5698 7.38194 14.6462 7.57639 14.6462 7.8125C14.6462 8.04861 14.5698 8.24306 14.417 8.39583L10.5837 12.2292C10.5003 12.3125 10.41 12.3715 10.3128 12.4062C10.2156 12.441 10.1114 12.4583 10.0003 12.4583Z" fill="#7F47DD"/>
</g>
</svg>
