<svg width="20" height="20" viewBox="0 0 20 20" fill="none" xmlns="http://www.w3.org/2000/svg">
<g id="verified_FILL1_wght400_GRAD0_opsz24 1">
<circle id="Ellipse 53" cx="9.99996" cy="10" r="5.45455" fill="white"/>
<path id="Vector" d="M9.12484 10.5833L7.9165 9.39584C7.76373 9.24306 7.57275 9.16667 7.34359 9.16667C7.11442 9.16667 6.9165 9.25001 6.74984 9.41667C6.59706 9.56945 6.52067 9.7639 6.52067 10C6.52067 10.2361 6.59706 10.4306 6.74984 10.5833L8.5415 12.375C8.70817 12.5417 8.90262 12.625 9.12484 12.625C9.34706 12.625 9.5415 12.5417 9.70817 12.375L13.2498 8.83334C13.4165 8.66667 13.4964 8.47223 13.4894 8.25001C13.4825 8.02778 13.4026 7.83334 13.2498 7.66667C13.0832 7.50001 12.8853 7.4132 12.6561 7.40626C12.4269 7.39931 12.229 7.47917 12.0623 7.64584L9.12484 10.5833ZM6.7915 18.125L5.58317 16.0833L3.2915 15.5833C3.08317 15.5417 2.9165 15.434 2.7915 15.2604C2.6665 15.0868 2.61789 14.8958 2.64567 14.6875L2.87484 12.3333L1.31234 10.5417C1.17345 10.3889 1.104 10.2083 1.104 10C1.104 9.79167 1.17345 9.61112 1.31234 9.45834L2.87484 7.66667L2.64567 5.31251C2.61789 5.10417 2.6665 4.9132 2.7915 4.73959C2.9165 4.56598 3.08317 4.45834 3.2915 4.41667L5.58317 3.91667L6.7915 1.87501C6.90262 1.69445 7.05539 1.57292 7.24984 1.51042C7.44428 1.44792 7.63873 1.45834 7.83317 1.54167L9.99984 2.45834L12.1665 1.54167C12.3609 1.45834 12.5554 1.44792 12.7498 1.51042C12.9443 1.57292 13.0971 1.69445 13.2082 1.87501L14.4165 3.91667L16.7082 4.41667C16.9165 4.45834 17.0832 4.56598 17.2082 4.73959C17.3332 4.9132 17.3818 5.10417 17.354 5.31251L17.1248 7.66667L18.6873 9.45834C18.8262 9.61112 18.8957 9.79167 18.8957 10C18.8957 10.2083 18.8262 10.3889 18.6873 10.5417L17.1248 12.3333L17.354 14.6875C17.3818 14.8958 17.3332 15.0868 17.2082 15.2604C17.0832 15.434 16.9165 15.5417 16.7082 15.5833L14.4165 16.0833L13.2082 18.125C13.0971 18.3056 12.9443 18.4271 12.7498 18.4896C12.5554 18.5521 12.3609 18.5417 12.1665 18.4583L9.99984 17.5417L7.83317 18.4583C7.63873 18.5417 7.44428 18.5521 7.24984 18.4896C7.05539 18.4271 6.90262 18.3056 6.7915 18.125Z" fill="#5E9B2D"/>
</g>
</svg>
