<svg width="28" height="28" viewBox="0 0 28 28" fill="none" xmlns="http://www.w3.org/2000/svg">
<g id="person_FILL0_wght400_GRAD0_opsz48 (2) 1">
<path id="Vector" d="M13.9998 13.9707C12.7165 13.9707 11.6665 13.5624 10.8498 12.7457C10.0332 11.929 9.62484 10.879 9.62484 9.5957C9.62484 8.31237 10.0332 7.26237 10.8498 6.4457C11.6665 5.62904 12.7165 5.2207 13.9998 5.2207C15.2832 5.2207 16.3332 5.62904 17.1498 6.4457C17.9665 7.26237 18.3748 8.31237 18.3748 9.5957C18.3748 10.879 17.9665 11.929 17.1498 12.7457C16.3332 13.5624 15.2832 13.9707 13.9998 13.9707ZM21.5832 23.3332H6.4165C5.93525 23.3332 5.52327 23.1618 5.18057 22.8191C4.83786 22.4764 4.6665 22.0645 4.6665 21.5832V20.5915C4.6665 19.8526 4.85123 19.2207 5.22067 18.6957C5.59011 18.1707 6.0665 17.7721 6.64984 17.4999C7.95261 16.9165 9.20192 16.479 10.3978 16.1874C11.5936 15.8957 12.7943 15.7499 13.9998 15.7499C15.2054 15.7499 16.4012 15.9006 17.5873 16.202C18.7734 16.5033 20.0171 16.9379 21.3184 17.5055C21.927 17.7802 22.415 18.1785 22.7822 18.7004C23.1495 19.2223 23.3332 19.8526 23.3332 20.5915V21.5832C23.3332 22.0645 23.1618 22.4764 22.8191 22.8191C22.4764 23.1618 22.0644 23.3332 21.5832 23.3332ZM6.4165 21.5832H21.5832V20.5915C21.5832 20.2804 21.4908 19.9839 21.3061 19.702C21.1214 19.42 20.8929 19.211 20.6207 19.0749C19.3762 18.4721 18.2387 18.0589 17.2082 17.8353C16.1776 17.6117 15.1082 17.4999 13.9998 17.4999C12.8915 17.4999 11.8123 17.6117 10.7623 17.8353C9.71234 18.0589 8.57484 18.4721 7.34984 19.0749C7.07761 19.211 6.854 19.42 6.679 19.702C6.504 19.9839 6.4165 20.2804 6.4165 20.5915V21.5832ZM13.9998 12.2207C14.7582 12.2207 15.3853 11.9728 15.8811 11.477C16.3769 10.9811 16.6248 10.354 16.6248 9.5957C16.6248 8.83737 16.3769 8.21029 15.8811 7.71445C15.3853 7.21862 14.7582 6.9707 13.9998 6.9707C13.2415 6.9707 12.6144 7.21862 12.1186 7.71445C11.6228 8.21029 11.3748 8.83737 11.3748 9.5957C11.3748 10.354 11.6228 10.9811 12.1186 11.477C12.6144 11.9728 13.2415 12.2207 13.9998 12.2207Z" fill="#7F47DD"/>
</g>
</svg>
